<svg xmlns="http://www.w3.org/2000/svg" viewBox="0 0 400 300" width="100%" height="100%">
  <!-- Background blob -->
  <path d="M150,250 C100,250 80,200 100,150 C120,100 200,80 250,120 C300,160 280,250 200,250 Z" fill="#E8F5E9" opacity="0.6"/>
  
  <!-- Empty Pot -->
  <g transform="translate(150, 160)">
    <!-- Base -->
    <path d="M20,60 L80,60 L90,10 L10,10 Z" fill="#D7CCC8" />
    <path d="M20,60 L80,60 L90,10 L10,10 Z" fill="#BCAAA4" opacity="0.3" />
    <!-- Rim -->
    <rect x="5" y="0" width="90" height="15" rx="4" fill="#8D6E63" />
    <!-- Soil -->
    <ellipse cx="50" cy="0" rx="40" ry="10" fill="#5D4037" />
    
    <!-- Ghost/Invisible seedling -->
    <path d="M50,0 C50,-20 35,-30 40,-45" fill="none" stroke="#A5D6A7" stroke-width="3" stroke-dasharray="4,4" />
    <path d="M40,-45 C30,-45 25,-35 40,-35 C45,-40 45,-45 40,-45" fill="#A5D6A7" opacity="0.5" />
    <path d="M45,-30 C60,-30 65,-20 50,-20 C45,-25 45,-30 45,-30" fill="#A5D6A7" opacity="0.5" />
    
    <!-- Sparkles -->
    <path d="M-10,-20 L-5,-20 L-5,-15 L-10,-15 Z" fill="#FFCF54" />
    <path d="M110,-40 L115,-40 L115,-35 L110,-35 Z" fill="#FFCF54" />
    <path d="M80,-60 L83,-60 L83,-57 L80,-57 Z" fill="#FFCF54" />
  </g>
</svg>
