<svg xmlns="http://www.w3.org/2000/svg" viewBox="0 0 400 300" width="100%" height="100%">
  <!-- Background blob -->
  <path d="M150,250 C100,250 80,200 100,150 C120,100 200,80 250,120 C300,160 280,250 200,250 Z" fill="#F3E5F5" opacity="0.6"/>
  
  <!-- Content Placeholder Lines -->
  <g transform="translate(140, 130)">
    <!-- Base Paper/Card -->
    <rect x="0" y="0" width="120" height="90" rx="8" fill="#FFFFFF" stroke="#E0E0E0" stroke-width="2"/>
    <rect x="-10" y="10" width="120" height="90" rx="8" fill="#FAFAFA" stroke="#EEEEEE" stroke-width="1"/>
    
    <!-- Lines inside the front card -->
    <rect x="15" y="25" width="40" height="4" rx="2" fill="#E0E0E0" />
    <rect x="15" y="35" width="70" height="4" rx="2" fill="#E0E0E0" />
    <rect x="15" y="45" width="90" height="4" rx="2" fill="#E0E0E0" />
    <rect x="15" y="55" width="60" height="4" rx="2" fill="#E0E0E0" />
    
    <!-- Floating leaf -->
    <path d="M100,0 C110,-15 125,-10 125,5 C125,20 110,25 100,5" fill="#C8E6C9" stroke="#81C784" stroke-width="1.5" />
    <!-- Floating leaf 2 -->
    <path d="M-15,30 C-30,20 -35,35 -20,45 C-5,55 0,40 -15,30" fill="#E1BEE7" stroke="#CE93D8" stroke-width="1.5" />
  </g>
</svg>
